<?xml version="1.0" encoding="UTF-8" standalone="no"?>
<!-- Created with Inkscape (http://www.inkscape.org/) -->

<svg
   width="32"
   height="32"
   viewBox="0 0 8.4666666 8.4666666"
   version="1.1"
   id="svg1"
   xml:space="preserve"
   inkscape:version="1.3.2 (091e20e, 2023-11-25, custom)"
   xmlns:inkscape="http://www.inkscape.org/namespaces/inkscape"
   xmlns:sodipodi="http://sodipodi.sourceforge.net/DTD/sodipodi-0.dtd"
   xmlns="http://www.w3.org/2000/svg"
   xmlns:svg="http://www.w3.org/2000/svg"><sodipodi:namedview
     id="namedview1"
     pagecolor="#ffffff"
     bordercolor="#000000"
     borderopacity="0.25"
     inkscape:showpageshadow="2"
     inkscape:pageopacity="0.0"
     inkscape:pagecheckerboard="0"
     inkscape:deskcolor="#d1d1d1"
     inkscape:document-units="mm"
     inkscape:zoom="5.6568543"
     inkscape:cx="17.235728"
     inkscape:cy="-1.5026019"
     inkscape:window-width="1920"
     inkscape:window-height="1009"
     inkscape:window-x="1912"
     inkscape:window-y="-8"
     inkscape:window-maximized="1"
     inkscape:current-layer="layer1" /><defs
     id="defs1" /><g
     inkscape:label="Layer 1"
     inkscape:groupmode="layer"
     id="layer1"><path
       sodipodi:type="star"
       style="fill:#e4d54c;fill-opacity:1;stroke-width:0.264583"
       id="path1"
       inkscape:flatsided="false"
       sodipodi:sides="5"
       sodipodi:cx="81.099625"
       sodipodi:cy="136.99261"
       sodipodi:r1="8.6834068"
       sodipodi:r2="4.3417034"
       sodipodi:arg1="1.3156139"
       sodipodi:arg2="1.9439325"
       inkscape:rounded="0"
       inkscape:randomized="0"
       d="m 83.291507,145.39483 -3.774596,-4.35927 -5.730938,0.63809 2.979497,-4.93695 -2.377813,-5.25326 5.616027,1.30807 4.261368,-3.88479 0.491399,5.74538 5.011483,2.85234 -5.312326,2.24276 z"
       inkscape:transform-center-x="-0.030243"
       inkscape:transform-center-y="0.0063723082"
       transform="matrix(0.04465039,0,0,0.04028052,-2.0524956,2.4264808)" /><path
       sodipodi:type="star"
       style="fill:#e4d54c;fill-opacity:1;stroke-width:0.264583"
       id="path1-9"
       inkscape:flatsided="false"
       sodipodi:sides="5"
       sodipodi:cx="81.099625"
       sodipodi:cy="136.99261"
       sodipodi:r1="8.6834068"
       sodipodi:r2="4.3417034"
       sodipodi:arg1="1.3156139"
       sodipodi:arg2="1.9439325"
       inkscape:rounded="0"
       inkscape:randomized="0"
       d="m 83.291507,145.39483 -3.774596,-4.35927 -5.730938,0.63809 2.979497,-4.93695 -2.377813,-5.25326 5.616027,1.30807 4.261368,-3.88479 0.491399,5.74538 5.011483,2.85234 -5.312326,2.24276 z"
       inkscape:transform-center-x="-0.030243075"
       inkscape:transform-center-y="0.0063718252"
       transform="matrix(0.04465039,0,0,0.04028052,-0.45763957,0.55075114)" /><path
       sodipodi:type="star"
       style="fill:#e4d54c;fill-opacity:1;stroke-width:0.264583"
       id="path1-3"
       inkscape:flatsided="false"
       sodipodi:sides="5"
       sodipodi:cx="81.099625"
       sodipodi:cy="136.99261"
       sodipodi:r1="8.6834068"
       sodipodi:r2="4.3417034"
       sodipodi:arg1="1.3156139"
       sodipodi:arg2="1.9439325"
       inkscape:rounded="0"
       inkscape:randomized="0"
       d="m 83.291507,145.39483 -3.774596,-4.35927 -5.730938,0.63809 2.979497,-4.93695 -2.377813,-5.25326 5.616027,1.30807 4.261368,-3.88479 0.491399,5.74538 5.011483,2.85234 -5.312326,2.24276 z"
       inkscape:transform-center-x="-0.030242855"
       inkscape:transform-center-y="0.0063713106"
       transform="matrix(0.04465039,0,0,0.04028052,-2.5723008,-0.14199029)" /><path
       sodipodi:type="star"
       style="fill:#e4d54c;fill-opacity:1;stroke-width:0.264583"
       id="path1-8"
       inkscape:flatsided="false"
       sodipodi:sides="5"
       sodipodi:cx="81.099625"
       sodipodi:cy="136.99261"
       sodipodi:r1="8.6834068"
       sodipodi:r2="4.3417034"
       sodipodi:arg1="1.3156139"
       sodipodi:arg2="1.9439325"
       inkscape:rounded="0"
       inkscape:randomized="0"
       d="m 83.291507,145.39483 -3.774596,-4.35927 -5.730938,0.63809 2.979497,-4.93695 -2.377813,-5.25326 5.616027,1.30807 4.261368,-3.88479 0.491399,5.74538 5.011483,2.85234 -5.312326,2.24276 z"
       inkscape:transform-center-x="-0.030242971"
       inkscape:transform-center-y="0.0063713977"
       transform="matrix(0.04465039,0,0,0.04028052,1.290795,-1.5381295)" /><path
       sodipodi:type="star"
       style="fill:#e4d54c;fill-opacity:1;stroke-width:0.264583"
       id="path1-6"
       inkscape:flatsided="false"
       sodipodi:sides="5"
       sodipodi:cx="81.099625"
       sodipodi:cy="136.99261"
       sodipodi:r1="8.6834068"
       sodipodi:r2="4.3417034"
       sodipodi:arg1="1.3156139"
       sodipodi:arg2="1.9439325"
       inkscape:rounded="0"
       inkscape:randomized="0"
       d="m 83.291507,145.39483 -3.774596,-4.35927 -5.730938,0.63809 2.979497,-4.93695 -2.377813,-5.25326 5.616027,1.30807 4.261368,-3.88479 0.491399,5.74538 5.011483,2.85234 -5.312326,2.24276 z"
       inkscape:transform-center-x="-0.030242831"
       inkscape:transform-center-y="0.006371555"
       transform="matrix(0.04465039,0,0,0.04028052,-0.44582608,-2.4120487)" /><path
       sodipodi:type="star"
       style="fill:#e4d54c;fill-opacity:1;stroke-width:0.264583"
       id="path1-1"
       inkscape:flatsided="false"
       sodipodi:sides="5"
       sodipodi:cx="81.099625"
       sodipodi:cy="136.99261"
       sodipodi:r1="8.6834068"
       sodipodi:r2="4.3417034"
       sodipodi:arg1="1.3156139"
       sodipodi:arg2="1.9439325"
       inkscape:rounded="0"
       inkscape:randomized="0"
       d="m 83.291507,145.39483 -3.774596,-4.35927 -5.730938,0.63809 2.979497,-4.93695 -2.377813,-5.25326 5.616027,1.30807 4.261368,-3.88479 0.491399,5.74538 5.011483,2.85234 -5.312326,2.24276 z"
       inkscape:transform-center-x="-0.030243006"
       inkscape:transform-center-y="0.0063714432"
       transform="matrix(0.04465039,0,0,0.04028052,-1.5208773,-4.1598873)" /><path
       sodipodi:type="star"
       style="fill:#e4d54c;fill-opacity:1;stroke-width:0.264583"
       id="path1-7"
       inkscape:flatsided="false"
       sodipodi:sides="5"
       sodipodi:cx="81.099625"
       sodipodi:cy="136.99261"
       sodipodi:r1="8.6834068"
       sodipodi:r2="4.3417034"
       sodipodi:arg1="1.3156139"
       sodipodi:arg2="1.9439325"
       inkscape:rounded="0"
       inkscape:randomized="0"
       d="m 83.291507,145.39483 -3.774596,-4.35927 -5.730938,0.63809 2.979497,-4.93695 -2.377813,-5.25326 5.616027,1.30807 4.261368,-3.88479 0.491399,5.74538 5.011483,2.85234 -5.312326,2.24276 z"
       inkscape:transform-center-x="-0.030243024"
       inkscape:transform-center-y="0.0063714053"
       transform="matrix(0.04465039,0,0,0.04028052,2.4608961,-2.3181328)" /><path
       sodipodi:type="star"
       style="fill:#e4d54c;fill-opacity:1;stroke-width:0.264583"
       id="path1-61"
       inkscape:flatsided="false"
       sodipodi:sides="5"
       sodipodi:cx="81.099625"
       sodipodi:cy="136.99261"
       sodipodi:r1="8.6834068"
       sodipodi:r2="4.3417034"
       sodipodi:arg1="1.3156139"
       sodipodi:arg2="1.9439325"
       inkscape:rounded="0"
       inkscape:randomized="0"
       d="m 83.291507,145.39483 -3.774596,-4.35927 -5.730938,0.63809 2.979497,-4.93695 -2.377813,-5.25326 5.616027,1.30807 4.261368,-3.88479 0.491399,5.74538 5.011483,2.85234 -5.312326,2.24276 z"
       inkscape:transform-center-x="-0.030243089"
       inkscape:transform-center-y="0.0063713962"
       transform="matrix(0.04465039,0,0,0.04028052,4.017374,-4.7317175)" /><path
       sodipodi:type="star"
       style="fill:#e4d54c;fill-opacity:1;stroke-width:0.264583"
       id="path1-64"
       inkscape:flatsided="false"
       sodipodi:sides="5"
       sodipodi:cx="81.099625"
       sodipodi:cy="136.99261"
       sodipodi:r1="8.6834068"
       sodipodi:r2="4.3417034"
       sodipodi:arg1="1.3156139"
       sodipodi:arg2="1.9439325"
       inkscape:rounded="0"
       inkscape:randomized="0"
       d="m 83.291507,145.39483 -3.774596,-4.35927 -5.730938,0.63809 2.979497,-4.93695 -2.377813,-5.25326 5.616027,1.30807 4.261368,-3.88479 0.491399,5.74538 5.011483,2.85234 -5.312326,2.24276 z"
       inkscape:transform-center-x="-0.030242711"
       inkscape:transform-center-y="0.0063712928"
       transform="matrix(0.04465039,0,0,0.04028052,4.1422279,-3.3278969)" /><path
       style="fill:#e4d54c;fill-opacity:1;stroke:#e4d54c;stroke-width:0.0535994;stroke-dasharray:none;stroke-opacity:1"
       d="M 1.5703893,7.9580978 3.1417674,6.1355739"
       id="path10" /><path
       style="fill:#e4d54c;fill-opacity:1;stroke:#e4d54c;stroke-width:0.0538597;stroke-dasharray:none;stroke-opacity:1"
       d="M 1.0152181,5.3789288 C 3.1653204,6.082327 3.2125755,6.0929843 3.2125755,6.0929843"
       id="path11" /><path
       style="fill:#e4d54c;fill-opacity:1;stroke:#e4d54c;stroke-width:0.0538597;stroke-dasharray:none;stroke-opacity:1"
       d="M 3.1653204,6.0716698 4.9255697,3.9827887 v 0 0"
       id="path12" /><path
       style="fill:#e4d54c;fill-opacity:1;stroke:#e4d54c;stroke-width:0.0538597;stroke-dasharray:none;stroke-opacity:1"
       d="M 4.937383,3.9721315 3.1653204,3.0982125"
       id="path13" /><path
       style="fill:#e4d54c;fill-opacity:1;stroke:#e4d54c;stroke-width:0.0538597;stroke-dasharray:none;stroke-opacity:1"
       d="M 3.2007612,3.0768971 2.0784554,1.3290582"
       id="path14" /><path
       style="fill:#e4d54c;fill-opacity:1;stroke:#e4d54c;stroke-width:0.0538597;stroke-dasharray:none;stroke-opacity:1"
       d="M 4.9137546,3.950816 6.1069433,3.2047878"
       id="path15" /><path
       style="fill:#e4d54c;fill-opacity:1;stroke:#e4d54c;stroke-width:0.0538597;stroke-dasharray:none;stroke-opacity:1"
       d="M 6.1069433,3.1621579 7.7963101,2.1390328"
       id="path16" /><path
       style="fill:#e4d54c;fill-opacity:1;stroke:#e4d54c;stroke-width:0.0538597;stroke-dasharray:none;stroke-opacity:1"
       d="M 7.7608683,2.2029781 7.6309174,0.75355074"
       id="path17" /></g></svg>
